<svg width="94" height="94" viewBox="0 0 94 94" fill="none" xmlns="http://www.w3.org/2000/svg">
<path d="M47.0001 66.0937C46.8079 66.093 46.6179 66.0536 46.4412 65.9779C46.2646 65.9022 46.105 65.7917 45.972 65.653L16.597 36.278C16.3848 35.9952 16.2819 35.6453 16.3069 35.2927C16.332 34.94 16.4834 34.6082 16.7334 34.3582C16.9834 34.1082 17.3152 33.9568 17.6679 33.9317C18.0205 33.9067 18.3704 34.0096 18.6532 34.2218L47.0001 62.5319L75.347 34.2218C75.4732 34.0534 75.6342 33.9142 75.819 33.8135C76.0037 33.7127 76.208 33.6529 76.4179 33.638C76.6278 33.6231 76.8384 33.6534 77.0356 33.727C77.2327 33.8006 77.4117 33.9157 77.5605 34.0645C77.7093 34.2133 77.8244 34.3923 77.898 34.5894C77.9716 34.7866 78.0019 34.9972 77.987 35.2071C77.9721 35.417 77.9123 35.6213 77.8115 35.8061C77.7108 35.9908 77.5716 36.1518 77.4032 36.278L48.0282 65.653C47.8952 65.7917 47.7356 65.9022 47.559 65.9779C47.3823 66.0536 47.1923 66.093 47.0001 66.0937V66.0937Z" fill="#2F322D"/>
</svg>
