<svg width="32" height="32" viewBox="0 0 32 32" fill="none" xmlns="http://www.w3.org/2000/svg">
<circle cx="16" cy="16" r="15.5" stroke="#EFE9E6"/>
<path d="M13.2022 11.8203C13.5948 11.8203 13.9482 11.8543 14.2722 11.9236C14.5942 11.9923 14.8688 12.1056 15.1008 12.2623C15.3295 12.419 15.5082 12.627 15.6368 12.8883C15.7615 13.1463 15.8235 13.469 15.8235 13.8503C15.8235 14.2636 15.7302 14.609 15.5428 14.8843C15.3542 15.1603 15.0762 15.3863 14.7055 15.561C15.2102 15.707 15.5842 15.9623 15.8322 16.325C16.0815 16.691 16.2035 17.129 16.2035 17.6423C16.2035 18.059 16.1242 18.417 15.9648 18.7176C15.8113 19.0138 15.5885 19.2686 15.3155 19.4603C15.0327 19.6573 14.7168 19.8018 14.3828 19.887C14.0327 19.9789 13.6721 20.025 13.3102 20.0243H9.3335V11.8203H13.2022ZM12.9682 15.135C13.2882 15.135 13.5535 15.059 13.7628 14.905C13.9708 14.753 14.0715 14.5023 14.0715 14.159C14.0715 13.9683 14.0375 13.811 13.9708 13.6876C13.9059 13.569 13.8098 13.4703 13.6928 13.4023C13.5705 13.3297 13.4354 13.2811 13.2948 13.259C13.1416 13.2304 12.986 13.2168 12.8302 13.2183H11.1402V15.135H12.9682ZM13.0688 18.6276C13.2468 18.6276 13.4162 18.6123 13.5755 18.5763C13.7362 18.5416 13.8788 18.4856 14.0002 18.4023C14.1215 18.3223 14.2215 18.2136 14.2935 18.075C14.3662 17.9376 14.4015 17.7583 14.4015 17.543C14.4015 17.1203 14.2822 16.8196 14.0462 16.6376C13.8095 16.4576 13.4922 16.3683 13.1035 16.3683H11.1402V18.6283H13.0688V18.6276ZM18.7788 18.6003C19.0235 18.839 19.3762 18.959 19.8348 18.959C20.1635 18.959 20.4475 18.8756 20.6868 18.7103C20.9228 18.5443 21.0668 18.367 21.1222 18.1836H22.5588C22.3282 18.8983 21.9782 19.409 21.4995 19.7163C21.0268 20.025 20.4515 20.1783 19.7795 20.1783C19.3115 20.1783 18.8902 20.103 18.5128 19.9536C18.1506 19.8126 17.8234 19.5947 17.5535 19.315C17.2881 19.0287 17.0829 18.6921 16.9502 18.325C16.8042 17.919 16.732 17.4903 16.7368 17.059C16.7368 16.615 16.8108 16.1996 16.9562 15.8163C17.0941 15.4458 17.306 15.1071 17.5788 14.821C17.8488 14.541 18.1688 14.3203 18.5415 14.1583C18.9334 13.9935 19.3551 13.9113 19.7802 13.917C20.2828 13.917 20.7222 14.0143 21.0995 14.2103C21.4654 14.3974 21.7827 14.6672 22.0262 14.9983C22.2682 15.327 22.4408 15.7036 22.5482 16.1256C22.6555 16.547 22.6928 16.987 22.6622 17.4476H18.3748C18.3755 17.917 18.5335 18.3616 18.7788 18.6003ZM20.6535 15.4796C20.4595 15.265 20.1315 15.149 19.7302 15.149C19.4695 15.149 19.2542 15.1923 19.0808 15.2816C18.9223 15.3617 18.7817 15.473 18.6675 15.609C18.5672 15.7324 18.4928 15.8748 18.4488 16.0276C18.4104 16.1551 18.3856 16.2863 18.3748 16.419H21.0295C20.9908 16.003 20.8482 15.6956 20.6535 15.4796ZM18.0415 12.371H21.3675V13.181H18.0415V12.371Z" fill="#EFE9E6"/>
</svg>
