<svg width="32" height="32" viewBox="0 0 32 32" fill="none" xmlns="http://www.w3.org/2000/svg">
<circle cx="16" cy="16" r="15.5" stroke="#EFE9E6"/>
<g clip-path="url(#clip0_564_1621)">
<path d="M19.7332 11.7332H20.7999M12.7999 8.5332H19.1999C20.3315 8.5332 21.4167 8.98273 22.2169 9.78288C23.017 10.583 23.4665 11.6683 23.4665 12.7999V19.1999C23.4665 20.3315 23.017 21.4167 22.2169 22.2169C21.4167 23.017 20.3315 23.4665 19.1999 23.4665H12.7999C11.6683 23.4665 10.583 23.017 9.78288 22.2169C8.98273 21.4167 8.5332 20.3315 8.5332 19.1999V12.7999C8.5332 11.6683 8.98273 10.583 9.78288 9.78288C10.583 8.98273 11.6683 8.5332 12.7999 8.5332V8.5332ZM15.9999 19.1999C15.1512 19.1999 14.3372 18.8627 13.7371 18.2626C13.137 17.6625 12.7999 16.8486 12.7999 15.9999C12.7999 15.1512 13.137 14.3372 13.7371 13.7371C14.3372 13.137 15.1512 12.7999 15.9999 12.7999C16.8486 12.7999 17.6625 13.137 18.2626 13.7371C18.8627 14.3372 19.1999 15.1512 19.1999 15.9999C19.1999 16.8486 18.8627 17.6625 18.2626 18.2626C17.6625 18.8627 16.8486 19.1999 15.9999 19.1999Z" stroke="#EFE9E6"/>
</g>
<defs>
<clipPath id="clip0_564_1621">
<rect width="16" height="16" fill="white" transform="translate(8 8)"/>
</clipPath>
</defs>
</svg>
