<svg width="32" height="32" viewBox="0 0 32 32" fill="none" xmlns="http://www.w3.org/2000/svg">
<circle cx="16" cy="16" r="15.5" stroke="#EFE9E6"/>
<path d="M12.6266 11.333C12.6265 11.6866 12.4858 12.0257 12.2356 12.2756C11.9855 12.5256 11.6462 12.6659 11.2926 12.6657C10.939 12.6655 10.5999 12.5249 10.35 12.2747C10.1001 12.0245 9.95978 11.6853 9.95996 11.3317C9.96014 10.9781 10.1008 10.639 10.351 10.3891C10.6011 10.1392 10.9403 9.99885 11.294 9.99902C11.6476 9.9992 11.9867 10.1398 12.2366 10.39C12.4865 10.6402 12.6268 10.9794 12.6266 11.333ZM12.6666 13.653H9.99996V21.9997H12.6666V13.653ZM16.88 13.653H14.2266V21.9997H16.8533V17.6197C16.8533 15.1797 20.0333 14.953 20.0333 17.6197V21.9997H22.6666V16.713C22.6666 12.5997 17.96 12.753 16.8533 14.773L16.88 13.653Z" fill="#EFE9E6"/>
</svg>
